# xmcd
#
# Track frame offsets:
#	150
#	11186
#	25752
#	36678
#	48455
#	61699
#	73563
#	86361
#	97181
#	112493
#	124230
#	136239
#
# Disc length: 1982 seconds
#
# Revision: 1
# Processed by: cddbd v1.5PL3 Copyright (c) Steve Scherf et al.
# Submitted via: audiograbber 1.81.03
#
DISCID=ae07bc0c
DTITLE=Sam and Dave - Sam and Dave Greatest Hits
DYEAR=1900
DGENRE=Soul
TTITLE0=Can't Find Another Way
TTITLE1=Don't Pull Your Love
TTITLE2=Hold On I'm Coming
TTITLE3=I Said I Wasn't Gonna Tell Anybody
TTITLE4=I Thank You
TTITLE5=Soothe Me
TTITLE6=Soul Man
TTITLE7=Soul Sister, Brown Sugar
TTITLE8=When Something Is Wrong With My Baby
TTITLE9=You Don't Know Like I Know
TTITLE10=You Don't Know What You Mean To Me
TTITLE11=You Got Me Hummin'
EXTD=
EXTT0=
EXTT1=
EXTT2=
EXTT3=
EXTT4=
EXTT5=
EXTT6=
EXTT7=
EXTT8=
EXTT9=
EXTT10=
EXTT11=
PLAYORDER=
